<svg width="91" height="91" viewBox="0 0 91 91" fill="none" xmlns="http://www.w3.org/2000/svg">
<path fill-rule="evenodd" clip-rule="evenodd" d="M45.5251 7.5835C51.6592 7.5835 57.7699 9.09664 63.1992 11.9592C81.6843 21.7127 88.7933 44.6868 79.0464 63.1784C72.3985 75.7876 59.3089 83.4168 45.4818 83.4168C42.7807 83.4168 40.0526 83.1264 37.3378 82.525C35.8085 82.1842 34.8434 80.6679 35.1807 79.1379C35.5179 77.608 37.0306 76.6495 38.57 76.9801C52.6909 80.12 67.2695 73.3428 74.0244 60.5296C82.3122 44.8105 76.2683 25.2734 60.5511 16.9829C55.9366 14.5479 50.7409 13.2619 45.522 13.2619H45.4853C27.7178 13.2619 13.2595 27.7218 13.2595 45.4952C13.2528 50.6724 14.515 55.8264 16.9091 60.406L17.6371 61.829C18.5286 63.4992 18.7256 65.5732 18.1479 67.4505C17.3499 69.5549 16.6854 71.6024 16.1378 73.64C18.2681 72.9985 20.8693 72.0532 22.7492 71.3684L23.5205 71.0913C24.9797 70.5468 26.6192 71.3184 27.1535 72.7949C27.6877 74.2679 26.9231 75.898 25.4505 76.4292L24.6893 76.7063L24.5597 76.7534H24.5595C21.7603 77.7676 17.9913 79.1334 15.4333 79.7059C15.2129 79.7526 14.9758 79.7825 14.7588 79.7761C13.0157 79.7761 11.9539 79.0712 11.3695 78.4767C10.4713 77.5648 10.0439 76.2855 10.094 74.6755C10.1007 74.4916 10.1241 74.3013 10.1675 74.1178C10.842 71.2452 11.7202 68.3791 12.782 65.6032C12.8588 65.3329 12.812 64.8418 12.595 64.4308L11.8637 63.0112C9.06224 57.6468 7.57632 51.5778 7.58303 45.4918C7.58303 24.5886 24.5857 7.5835 45.4818 7.5835H45.5251ZM24.2795 45.4967C24.2795 43.0083 26.2997 40.9873 28.7873 40.9873C31.275 40.9873 33.2951 43.0083 33.2951 45.4967C33.2951 47.9818 31.275 50.0028 28.7873 50.0028C26.2997 50.0028 24.2795 47.9818 24.2795 45.4967ZM49.9909 45.4956C49.9909 43.0102 47.9707 40.9862 45.483 40.9862C42.9956 40.9862 40.9754 43.0102 40.9754 45.4956C40.9754 47.9807 42.9956 50.0047 45.483 50.0047C47.9707 50.0047 49.9909 47.9807 49.9909 45.4956ZM62.1788 40.9862C64.6662 40.9862 66.6864 43.0102 66.6864 45.4956C66.6864 47.9807 64.6662 50.0047 62.1788 50.0047C59.6911 50.0047 57.6709 47.9807 57.6709 45.4956C57.6709 43.0102 59.6911 40.9862 62.1788 40.9862Z" fill="white"/>
</svg>
