<svg width="60" height="50" viewBox="0 0 60 50" fill="none" xmlns="http://www.w3.org/2000/svg">
<path d="M59 49.1C59.2 49.1 59.4 49.1 59.6 49.1V49.6C58.6667 49.7333 57.6167 49.8 56.45 49.8C55.3167 49.8 53.9 49.55 52.2 49.05C50.5333 48.55 49.0167 47.6167 47.65 46.25C44.85 43.45 43.15 39.8167 42.55 35.35L39.5 13.1L29.1 36.6C28.1667 38.6333 27.6 40.3333 27.4 41.7H26.9L13.95 13.55L11.75 38.4C11.6833 38.9667 11.85 39.4667 12.25 39.9C12.6833 40.3333 13.15 40.55 13.65 40.55H14.45V41H4.75V40.5H5.55C6.45 40.5 7.23333 40.2333 7.9 39.7C8.6 39.1333 9.03333 38.4 9.2 37.5L12.35 10.2C9.41667 4.43333 5.9 1.55 1.8 1.55C1.43333 1.55 1.05 1.56666 0.65 1.6V1.1C1.55 0.866664 2.28333 0.749997 2.85 0.749997C3.41667 0.749997 4.03333 0.783331 4.7 0.849998C5.36667 0.883331 6.15 1.03333 7.05 1.3C7.95 1.56667 8.8 1.96667 9.6 2.5C10.4 3 11.1 3.53333 11.7 4.1C12.3 4.63333 12.8667 5.23333 13.4 5.9C14.3 7.1 15.0167 8.25 15.55 9.35L27.6 35.45L41.05 5.3H41.5L46.15 34.9C46.85 39.5667 48.35 43.1 50.65 45.5C52.9833 47.9 55.7667 49.1 59 49.1Z" fill="#2ECCDC"/>
</svg>
