<svg width="101" height="101" viewBox="0 0 101 101" fill="none" xmlns="http://www.w3.org/2000/svg">
<path fill-rule="evenodd" clip-rule="evenodd" d="M92.5837 43.3749C92.5837 45.0317 91.2505 46.375 89.6054 46.375L89.5684 46.3001C88.7785 46.3001 88.021 45.984 87.4625 45.4214C86.9041 44.8587 86.5906 44.0958 86.5906 43.3V37.225C86.4896 27.0156 78.2985 18.7641 68.164 18.6625H32.8369C22.7022 18.7641 14.5111 27.0156 14.4103 37.225V63.7752C14.5111 73.9846 22.7022 82.2359 32.8369 82.3373H68.164C78.2985 82.2359 86.4896 73.9846 86.5906 63.7752C86.7606 62.2375 88.0513 61.0743 89.5869 61.0743C91.123 61.0743 92.4132 62.2375 92.5837 63.7752C92.5429 77.3441 81.6336 88.3338 68.164 88.375H32.8369C19.3587 88.3544 8.43749 77.3525 8.41699 63.7752V37.225C8.41699 23.6388 19.3502 12.625 32.8369 12.625H68.164C81.6336 12.6662 92.5429 23.6559 92.5837 37.225V43.3749ZM53.6086 49.8999L70.9183 35.95H70.9558C72.2448 34.9178 74.1171 35.1182 75.162 36.4C75.6599 37.0249 75.8888 37.8245 75.7979 38.6205C75.707 39.4165 75.3038 40.1428 74.678 40.6375L57.3683 54.625C52.9673 58.1928 46.6935 58.1928 42.292 54.625L24.9451 40.6375C23.6726 39.5848 23.4738 37.6985 24.4984 36.4C24.9882 35.7777 25.7055 35.3796 26.4894 35.295C27.2733 35.2104 28.058 35.4464 28.6676 35.95L46.1636 49.8999C48.349 51.6274 51.4232 51.6274 53.6086 49.8999Z" fill="white"/>
</svg>
