<svg width="91" height="91" viewBox="0 0 91 91" fill="none" xmlns="http://www.w3.org/2000/svg">
<path fill-rule="evenodd" clip-rule="evenodd" d="M51.6285 10.0885C51.8033 8.54358 53.185 7.40733 54.7153 7.60609C69.9002 9.30104 81.6965 21.1659 83.3982 36.4544C83.5733 37.9995 82.4673 39.3944 80.937 39.5632C80.8289 39.5745 80.7247 39.5817 80.6204 39.5817C79.2201 39.5817 78.0102 38.5205 77.8498 37.0844C76.4351 24.4246 66.6716 14.5997 54.0973 13.1935C52.5632 13.021 51.4609 11.6335 51.6285 10.0885ZM14.5459 21.317C12.6283 23.9719 12.7623 27.3769 14.8215 31.9331C15.4582 33.3468 14.8401 35.0118 13.4363 35.6568C12.0363 36.3018 10.3755 35.6755 9.73877 34.2618C6.81202 27.7856 6.86416 22.3782 9.90261 18.2008C10.5431 17.1133 17.6291 7.95594 24.2608 8.39468C26.1785 8.55218 27.936 9.45593 29.5892 11.0796C31.3431 12.8009 38.727 21.842 39.3189 24.7144C39.9551 27.7905 38.5841 30.1927 37.5827 31.9473L37.5801 31.9518C36.5933 33.6806 36.2508 34.4193 36.5896 35.353C39.0846 41.4954 42.9346 46.5091 47.995 50.1503C49.2496 51.058 49.5401 52.809 48.643 54.0765C48.0993 54.8417 47.2427 55.2538 46.3714 55.2538C45.8091 55.2538 45.2396 55.0851 44.7482 54.7291C38.8165 50.4578 34.3182 44.6228 31.3766 37.3743C30.0845 33.7931 31.6186 31.1081 32.7394 29.1469C33.581 27.6769 34.0464 26.7994 33.849 25.8619C33.3278 24.5082 27.8801 17.2596 25.6869 15.1071C25.0092 14.4359 24.3725 14.0421 23.8996 14.0046C21.3899 13.8883 15.7822 19.2545 14.5459 21.317ZM57.2747 53.7921C59.3597 52.4723 62.2194 50.6762 65.8499 51.4299C68.6986 52.0222 77.6724 59.4584 79.3851 61.2284C80.9977 62.8857 81.8948 64.656 82.0476 66.4935C82.2895 73.397 73.1 80.6193 72.0497 81.2268C70.0428 82.682 67.6931 83.4168 65.0529 83.4168C62.4242 83.4168 59.505 82.6892 56.3435 81.212C44.1825 76.1194 25.7916 59.6309 15.4549 44.4999C14.5798 43.2248 14.9001 41.4738 16.1698 40.5888C17.4395 39.7186 19.1822 40.0299 20.0535 41.316C29.7088 55.4423 47.3587 71.357 58.5927 76.0633C63.1393 78.1855 66.5241 78.317 69.0372 76.502C70.996 75.3019 76.5739 69.7259 76.4734 66.8233C76.4397 66.4821 76.0526 65.8409 75.3936 65.1584C73.2486 62.946 66.0547 57.4636 64.5505 56.8934C63.3516 56.6495 62.1299 57.3624 60.2496 58.5511L59.2816 59.1585C57.9595 59.957 56.2392 59.5221 55.4502 58.1984C54.6532 56.8634 55.0812 55.1348 56.4034 54.3359L57.2747 53.7921ZM64.6916 37.342C64.9521 38.6846 66.1214 39.6143 67.4284 39.6143C67.607 39.6143 67.7898 39.5996 67.9683 39.5658C69.4839 39.2693 70.4705 37.7882 70.1762 36.2658C68.6645 28.4659 62.6847 22.4435 54.9394 20.9248C53.4463 20.666 51.9607 21.626 51.6627 23.1485C51.3684 24.6709 52.3592 26.1522 53.8709 26.4484C59.3704 27.5247 63.6193 31.7996 64.6916 37.342Z" fill="white"/>
</svg>
