<?xml version="1.0" standalone="no"?>
<!DOCTYPE svg PUBLIC "-//W3C//DTD SVG 20010904//EN"
 "http://www.w3.org/TR/2001/REC-SVG-20010904/DTD/svg10.dtd">
<svg version="1.0" xmlns="http://www.w3.org/2000/svg"
 width="1280.000000pt" height="461.000000pt" viewBox="0 0 1280.000000 461.000000"
 preserveAspectRatio="xMidYMid meet">
<metadata>
Created by potrace 1.16, written by Peter Selinger 2001-2019
</metadata>
<g transform="translate(0.000000,461.000000) scale(0.100000,-0.100000)"
fill="#2eccdc" stroke="none">
<path d="M2265 4604 c-375 -24 -708 -109 -1010 -261 -164 -82 -275 -156 -435
-291 -60 -51 -92 -82 -204 -202 -147 -156 -334 -459 -424 -685 -216 -543 -243
-1075 -81 -1575 134 -413 479 -846 894 -1123 55 -37 105 -71 110 -75 27 -21
324 -166 397 -193 399 -150 831 -216 1244 -189 289 18 575 72 835 156 440 142
879 397 1308 759 288 243 631 616 897 975 68 91 268 391 328 490 l56 93 0 -74
c0 -41 -7 -150 -15 -244 -17 -203 -19 -365 -4 -420 51 -186 216 -158 521 88
69 56 179 145 245 198 107 86 239 189 333 261 19 14 75 58 125 96 49 39 92 69
94 67 2 -2 -34 -44 -79 -92 -90 -96 -353 -409 -525 -623 -59 -74 -115 -144
-124 -155 -24 -28 -294 -392 -365 -490 -31 -44 -84 -117 -117 -163 -99 -137
-118 -206 -79 -287 23 -49 46 -75 86 -97 71 -40 168 -31 226 20 25 23 72 86
218 296 91 130 356 484 565 755 90 116 373 450 501 591 22 25 69 77 105 116
78 86 467 475 564 564 110 101 202 182 294 256 179 148 180 148 292 177 127
33 411 92 517 107 154 22 418 50 475 50 31 0 57 4 57 8 0 5 -24 14 -52 21
-224 53 -348 69 -536 72 -67 1 -125 5 -127 9 -11 17 362 216 515 275 52 20
104 41 115 46 97 42 352 109 505 130 150 22 441 17 577 -9 334 -63 604 -203
833 -432 301 -300 494 -717 551 -1193 19 -161 7 -464 -25 -619 -65 -310 -206
-593 -401 -806 -365 -396 -966 -578 -1660 -501 -338 37 -631 106 -1275 298
-238 71 -492 142 -496 138 -2 -2 34 -32 81 -67 511 -375 1154 -618 1770 -669
324 -26 713 14 985 103 122 40 155 53 278 115 443 222 763 594 938 1093 250
711 127 1548 -314 2138 -31 41 -61 80 -66 86 -6 6 -29 32 -51 58 -34 42 -143
144 -240 225 -57 48 -228 153 -343 211 -182 90 -383 151 -622 186 -138 20
-489 15 -635 -9 -326 -55 -640 -164 -975 -339 -297 -155 -527 -308 -887 -590
-34 -27 -108 -69 -165 -94 -345 -151 -825 -443 -1338 -814 -30 -22 -76 -55
-102 -74 -25 -18 -117 -86 -202 -150 -86 -64 -158 -116 -161 -116 -2 0 -5 179
-7 398 l-3 397 -34 87 c-65 172 -184 343 -360 518 -108 107 -318 277 -329 265
-3 -2 11 -24 31 -48 81 -99 156 -239 219 -412 64 -173 70 -202 75 -366 6 -191
-3 -244 -56 -313 -39 -52 -57 -77 -194 -276 -183 -265 -465 -628 -625 -805
-137 -151 -361 -373 -487 -480 -38 -33 -72 -63 -75 -66 -3 -3 -66 -51 -141
-107 -641 -476 -1264 -697 -1964 -695 -134 0 -257 7 -340 17 -710 91 -1285
429 -1650 971 -155 230 -238 462 -271 752 -14 122 -15 168 -5 294 47 629 341
1177 826 1543 134 101 167 122 295 187 311 156 613 222 1010 222 380 0 713
-58 1133 -197 135 -45 394 -142 412 -155 6 -4 26 -14 45 -21 39 -15 359 -172
430 -212 144 -79 282 -163 410 -248 80 -53 151 -100 159 -104 28 -18 -5 24
-104 130 -624 671 -1560 1092 -2485 1117 -85 2 -182 3 -215 1z"/>
</g>
</svg>
